<svg xmlns="http://www.w3.org/2000/svg" viewBox="0 0 240 100" role="img" aria-labelledby="title">
  <title id="title">Student Collaboration Icon</title>
  <!-- Left student -->
  <circle cx="30" cy="30" r="12" fill="#4A90E2"/>
  <path d="M20 52c0-6 10-6 10-6s10 0 10 6v14h-20V52z" fill="#4A90E2"/>
  <path d="M40 44 L62 44" stroke="#4A90E2" stroke-width="4" stroke-linecap="round"/>
  <!-- Right student -->
  <circle cx="90" cy="30" r="12" fill="#4A90E2"/>
  <path d="M80 52c0-6 10-6 10-6s10 0 10 6v14h-20V52z" fill="#4A90E2"/>
  <path d="M78 44 L100 44" stroke="#4A90E2" stroke-width="4" stroke-linecap="round"/>
  <!-- Shared item (book) -->
  <g transform="translate(60,34)">
    <rect width="18" height="12" rx="2" ry="2" fill="#50E3C2"/>
    <line x1="4" y1="2" x2="4" y2="10" stroke="#ffffff" stroke-width="1"/>
    <line x1="8" y1="2" x2="8" y2="10" stroke="#ffffff" stroke-width="1"/>
  </g>
  <!-- Text label -->
  <text x="120" y="58" fill="#333333" font-family="Arial, sans-serif" font-size="18" font-weight="500">Student Share</text>
</svg>